<?xml version="1.0" encoding="UTF-8" standalone="no"?>
<!-- Generator: Adobe Illustrator 16.0.0, SVG Export Plug-In . SVG Version: 6.00 Build 0)  -->

<svg
   xmlns:dc="http://purl.org/dc/elements/1.1/"
   xmlns:cc="http://creativecommons.org/ns#"
   xmlns:rdf="http://www.w3.org/1999/02/22-rdf-syntax-ns#"
   xmlns:svg="http://www.w3.org/2000/svg"
   xmlns="http://www.w3.org/2000/svg"
   xmlns:sodipodi="http://sodipodi.sourceforge.net/DTD/sodipodi-0.dtd"
   xmlns:inkscape="http://www.inkscape.org/namespaces/inkscape"
   version="1.1"
   x="0px"
   y="0px"
   width="309.598px"
   height="183px"
   viewBox="0 0 309.598 183"
   enable-background="new 0 0 309.598 183"
   xml:space="preserve"
   id="svg2"
   inkscape:version="0.91 r13725"
   sodipodi:docname="pelleteuse.svg"><metadata
     id="metadata84"><rdf:RDF><cc:Work
         rdf:about=""><dc:format>image/svg+xml</dc:format><dc:type
           rdf:resource="http://purl.org/dc/dcmitype/StillImage" /></cc:Work></rdf:RDF></metadata><defs
     id="defs82" /><sodipodi:namedview
     pagecolor="#ffffff"
     bordercolor="#666666"
     borderopacity="1"
     objecttolerance="10"
     gridtolerance="10"
     guidetolerance="10"
     inkscape:pageopacity="0"
     inkscape:pageshadow="2"
     inkscape:window-width="1920"
     inkscape:window-height="1056"
     id="namedview80"
     showgrid="false"
     inkscape:snap-center="true"
     inkscape:zoom="3.8372342"
     inkscape:cx="154.96531"
     inkscape:cy="91.5"
     inkscape:window-x="0"
     inkscape:window-y="24"
     inkscape:window-maximized="1"
     inkscape:current-layer="svg2"
     inkscape:snap-object-midpoints="true" /><g
     id="g4246"
     inkscape:transform-center-x="26.4305"
     inkscape:transform-center-y="45.592699"><path
       inkscape:transform-center-y="30.109"
       inkscape:transform-center-x="23.174"
       inkscape:connector-curvature="0"
       id="compass"
       d="m 21.057,114 -13.5,0 31.5,-101.5 20.5,-11.5 0,30 z"
       style="fill:#ffff33;stroke:#ffcc00;stroke-width:2;stroke-linecap:round;stroke-linejoin:round;stroke-miterlimit:10" /><path
       stroke-miterlimit="10"
       d="m 3.941,99.045 -2.897,43.827 c 0,0 23.456,10.234 35.75,-14.532 l 1.729,-8.322 -28.883,-6 L 7.192,113.51 10.65,96.865 4.775,95.644 3.941,99.045 Z"
       id="path7"
       inkscape:connector-curvature="0"
       style="fill:#ffcc00;stroke:#ffcc00;stroke-width:2;stroke-miterlimit:10" /><polyline
       stroke-miterlimit="10"
       points="33.591,118.491 38.557,111 38.557,121     "
       id="polyline9"
       style="fill:#ffff33;stroke:#ffcc00;stroke-width:2;stroke-miterlimit:10" /><circle
       stroke-miterlimit="10"
       cx="51.122002"
       cy="15.315"
       r="3.5650001"
       id="circle11"
       style="fill:none;stroke:#ffcc00;stroke-width:2;stroke-miterlimit:10" /><circle
       stroke-miterlimit="10"
       cx="19.122"
       cy="103.315"
       r="3.5650001"
       id="circle13"
       style="fill:none;stroke:#ffcc00;stroke-width:2;stroke-miterlimit:10" /></g><g
     id="Layer_6"><path
       stroke-miterlimit="10"
       d="M148.557,39.625c0,0,46.5,11.375,51,58.375v9   l-16.5,7c0,0-17-42.5-47-52.5s-77-26.5-77-26.5s-19-12,4-13.5L148.557,39.625z"
       id="path16"
       stroke-width="2"
       stroke="#FFCC00"
       fill="#FFFF33" /><circle
       fill="none"
       stroke="#FFCC00"
       stroke-width="2"
       stroke-miterlimit="10"
       cx="56.731"
       cy="27.391"
       r="1.924"
       id="circle18" /></g><g
     id="Layer_5"><path
       fill="#999999"
       stroke="#333333"
       stroke-width="2"
       stroke-miterlimit="10"
       d="M173.557,87h49c0,0,5.5,0.5,7,6.5   c0.183,0.729,0.409,1.938,0.667,3.5c1.86,11.288,5.333,41,5.333,41v6l-68-1.5C167.557,142.5,157.057,116.5,173.557,87z"
       id="path21" /><polygon
       fill="#999999"
       stroke="#333333"
       stroke-width="2"
       stroke-miterlimit="10"
       points="245.057,95 230.057,95 232.471,105    245.557,105  "
       id="polygon23" /><polygon
       fill="#999999"
       stroke="#333333"
       stroke-width="2"
       stroke-miterlimit="10"
       points="251.557,85 285.557,85 288.557,95.644    246.557,95  "
       id="polygon25" /><polygon
       fill="#999999"
       stroke="#333333"
       stroke-width="2"
       stroke-miterlimit="10"
       points="231.557,103 245.557,103 247.557,136    235.557,136  "
       id="polygon27" /><polygon
       fill="#999999"
       stroke="#333333"
       stroke-width="2"
       stroke-miterlimit="10"
       points="189.307,144.968 240.932,145    241.057,153 197.557,153  "
       id="polygon29" /><path
       fill="#CCFFFF"
       stroke="#333333"
       stroke-width="2"
       stroke-miterlimit="10"
       d="M173.557,89h40l0.75,47h-46.75   C166.734,132.268,159.714,117.066,173.557,89z"
       id="path31" /><line
       fill="none"
       stroke="#333333"
       stroke-width="2"
       stroke-miterlimit="10"
       x1="165.557"
       y1="114"
       x2="213.557"
       y2="114"
       id="line33" /><polygon
       fill="#333333"
       stroke="#333333"
       stroke-width="2"
       stroke-miterlimit="10"
       points="213.914,87 223.557,87.323 223.557,136    214.307,136  "
       id="polygon35" /><line
       fill="none"
       stroke="#333333"
       stroke-width="2"
       stroke-miterlimit="10"
       x1="251.557"
       y1="102"
       x2="259.557"
       y2="102"
       id="line37" /></g><g
     id="Layer_3"><path
       fill="#FFFFFF"
       stroke="#333333"
       stroke-width="2"
       stroke-miterlimit="10"
       d="M288.557,170c0,6.627-5.373,12-12,12h-135   c-6.627,0-12-5.373-12-12v-5c0-6.627,5.373-12,12-12h135c6.627,0,12,5.373,12,12V170z"
       id="path40" /><rect
       x="167.557"
       y="138"
       fill="#FFFF33"
       stroke="#FFCC00"
       stroke-width="2"
       stroke-miterlimit="10"
       width="124"
       height="6"
       id="rect42" /><polygon
       fill="#FFFF33"
       stroke="#FFCC00"
       stroke-width="2"
       stroke-miterlimit="10"
       points="246.557,97 287.557,97 290.557,138    248.557,138  "
       id="polygon44" /><path
       fill="#FFFF33"
       stroke="#FFCC00"
       stroke-width="2"
       stroke-miterlimit="10"
       d="M308.557,131c0,0,0.5,7.5-2,10s-15,3-15,3l-3-47   c0,0,15-5.5,16.5,7.5S308.557,131,308.557,131z"
       id="path46" /><path
       fill="none"
       stroke="#333333"
       stroke-width="3"
       stroke-miterlimit="10"
       d="M283.057,167.033c0,4.952-3.584,9.467-8.621,9.467   H145.178c-5.037,0-10.121-4.515-10.121-9.467v-0.066c0-4.952,5.084-8.467,10.121-8.467h129.258c5.037,0,8.621,3.515,8.621,8.467   V167.033z"
       id="path48" /><circle
       fill="#333333"
       cx="143.057"
       cy="167.5"
       r="9"
       id="circle50" /><circle
       fill="#333333"
       cx="273.057"
       cy="167.5"
       r="9"
       id="circle52" /><circle
       fill="#666666"
       cx="143.365"
       cy="167.808"
       r="4.308"
       id="circle54" /><circle
       fill="#666666"
       cx="274.365"
       cy="167.808"
       r="4.308"
       id="circle56" /><polygon
       fill="none"
       stroke="#333333"
       stroke-width="2"
       stroke-miterlimit="10"
       points="149.557,168 266.557,168 269.557,173    147.557,173  "
       id="polygon58" /><line
       fill="none"
       stroke="#333333"
       stroke-miterlimit="10"
       x1="147.557"
       y1="163.5"
       x2="267.557"
       y2="163.5"
       id="line60" /><line
       fill="#FFFF33"
       stroke="#FFCC00"
       stroke-width="2"
       stroke-miterlimit="10"
       x1="251.557"
       y1="102"
       x2="257.557"
       y2="102"
       id="line62" /><line
       fill="#FFFF33"
       stroke="#FFCC00"
       stroke-width="2"
       stroke-miterlimit="10"
       x1="292.557"
       y1="103"
       x2="298.557"
       y2="103"
       id="line64" /><line
       fill="#FFFF33"
       stroke="#FFCC00"
       stroke-width="2"
       stroke-miterlimit="10"
       x1="251.557"
       y1="106"
       x2="257.557"
       y2="106"
       id="line66" /><line
       fill="#FFFF33"
       stroke="#FFCC00"
       stroke-width="2"
       stroke-miterlimit="10"
       x1="292.557"
       y1="107"
       x2="298.557"
       y2="107"
       id="line68" /><line
       fill="#FFFF33"
       stroke="#FFCC00"
       stroke-width="2"
       stroke-miterlimit="10"
       x1="251.557"
       y1="110"
       x2="257.557"
       y2="110"
       id="line70" /><line
       fill="#FFFF33"
       stroke="#FFCC00"
       stroke-width="2"
       stroke-miterlimit="10"
       x1="292.557"
       y1="112"
       x2="298.557"
       y2="112"
       id="line72" /><line
       fill="#FFFF33"
       stroke="#FFCC00"
       stroke-width="2"
       stroke-miterlimit="10"
       x1="301.557"
       y1="115"
       x2="304.807"
       y2="132.734"
       id="line74" /><line
       fill="#FFFF33"
       stroke="#FFCC00"
       stroke-width="2"
       stroke-miterlimit="10"
       x1="251.557"
       y1="129.25"
       x2="285.557"
       y2="129.008"
       id="line76" /><line
       fill="#FFFF33"
       stroke="#FFCC00"
       stroke-width="2"
       stroke-miterlimit="10"
       x1="251.557"
       y1="124.25"
       x2="285.557"
       y2="124.008"
       id="line78" /></g></svg>